<svg width="28" height="28" viewBox="0 0 28 28" fill="none" xmlns="http://www.w3.org/2000/svg"><circle cx="14" cy="14" r="14" fill="#fff"/><path d="M21.697 11.963a.188.188 0 01.303.146V18.5a1.5 1.5 0 01-1.5 1.5h-13A1.5 1.5 0 016 18.5v-6.387c0-.157.178-.244.303-.147.7.543 1.628 1.234 4.816 3.55.66.48 1.772 1.493 2.881 1.487 1.116.01 2.25-1.025 2.884-1.487 3.188-2.316 4.113-3.01 4.813-3.553zM14 16c.725.012 1.769-.912 2.294-1.294 4.147-3.01 4.462-3.272 5.418-4.022a.748.748 0 00.288-.59V9.5A1.5 1.5 0 0020.5 8h-13A1.5 1.5 0 006 9.5v.594a.75.75 0 00.287.59c.957.747 1.272 1.013 5.42 4.022.524.382 1.568 1.306 2.293 1.294z" fill="#6FCF0F"/></svg>