<svg width="24" height="24" viewBox="0 0 24 24" fill="none" xmlns="http://www.w3.org/2000/svg">
<path d="M0 4C0 1.79086 1.79086 0 4 0H20C22.2091 0 24 1.79086 24 4V20C24 22.2091 22.2091 24 20 24H4C1.79086 24 0 22.2091 0 20V4Z" fill="#31A1B9"/>
<path d="M20.2022 5.79215C20.5993 6.18169 20.5993 6.81325 20.2022 7.20278L8.68632 18.5L3.79792 13.7044C3.40069 13.3147 3.40069 12.6829 3.79792 12.2933C4.1948 11.9039 4.83815 11.9035 5.23551 12.2924L8.68632 15.6694L18.7646 5.79182C19.1617 5.4026 19.8053 5.40275 20.2022 5.79215Z" fill="#FBFBFB"/>
</svg>
