<svg width="28" height="28" viewBox="0 0 28 28" fill="none" xmlns="http://www.w3.org/2000/svg">
<circle cx="14" cy="14" r="14" fill="white"/>
<path d="M13.3834 22.657C8.84281 15.6631 8 14.9454 8 12.375C8 8.85417 10.6863 6 14 6C17.3137 6 20 8.85417 20 12.375C20 14.9454 19.1572 15.6631 14.6166 22.657C14.3187 23.1143 13.6813 23.1143 13.3834 22.657ZM14 15.0312C15.3807 15.0312 16.5 13.842 16.5 12.375C16.5 10.908 15.3807 9.71875 14 9.71875C12.6193 9.71875 11.5 10.908 11.5 12.375C11.5 13.842 12.6193 15.0312 14 15.0312Z" fill="#6FCF0F"/>
</svg>
