<svg width="28" height="28" viewBox="0 0 28 28" fill="none" xmlns="http://www.w3.org/2000/svg">
<circle cx="14" cy="14" r="14" fill="white"/>
<path d="M21.6969 11.9625C21.8187 11.8656 22 11.9562 22 12.1094V18.5C22 19.3281 21.3281 20 20.5 20H7.5C6.67188 20 6 19.3281 6 18.5V12.1125C6 11.9563 6.17812 11.8687 6.30312 11.9656C7.00312 12.5094 7.93125 13.2 11.1188 15.5156C11.7781 15.9969 12.8906 17.0094 14 17.0031C15.1156 17.0125 16.25 15.9781 16.8844 15.5156C20.0719 13.2 20.9969 12.5062 21.6969 11.9625ZM14 16C14.725 16.0125 15.7688 15.0875 16.2937 14.7063C20.4406 11.6969 20.7562 11.4344 21.7125 10.6844C21.8937 10.5437 22 10.325 22 10.0938V9.5C22 8.67188 21.3281 8 20.5 8H7.5C6.67188 8 6 8.67188 6 9.5V10.0938C6 10.325 6.10625 10.5406 6.2875 10.6844C7.24375 11.4312 7.55938 11.6969 11.7063 14.7063C12.2313 15.0875 13.275 16.0125 14 16Z" fill="#6FCF0F"/>
</svg>
